<svg width="286" height="276" viewBox="0 0 286 276" fill="none" xmlns="http://www.w3.org/2000/svg">
<ellipse cx="143" cy="138" rx="143" ry="138" fill="#555B6E"/>
<path d="M73.175 192.025C73.375 189.275 73.525 185.5 73.625 180.7C73.725 175.9 73.8 170.525 73.85 164.575C73.95 158.575 74 152.375 74 145.975C74 139.525 73.95 133.175 73.85 126.925C73.8 120.675 73.725 114.9 73.625 109.6C73.525 104.25 73.375 99.8 73.175 96.25C74.025 96.15 75.325 96.025 77.075 95.875C78.875 95.725 80.675 95.65 82.475 95.65C83.675 95.65 84.975 95.7 86.375 95.8C87.825 95.9 88.825 96 89.375 96.1C89.525 99.65 89.65 103.925 89.75 108.925C89.85 113.875 89.9 119.225 89.9 124.975C89.95 130.675 89.925 136.475 89.825 142.375C89.725 148.275 89.625 153.95 89.525 159.4C89.475 163.15 89.4 166.575 89.3 169.675C89.2 172.725 89.075 175.175 88.925 177.025C92.375 176.825 96.275 176.625 100.625 176.425C105.025 176.225 109.55 176.05 114.2 175.9C118.85 175.75 123.35 175.675 127.7 175.675C127.75 176.625 127.8 177.975 127.85 179.725C127.9 181.475 127.925 183.3 127.925 185.2C127.925 187.1 127.9 188.775 127.85 190.225C122.25 190.775 116.875 191.225 111.725 191.575C106.625 191.875 101.775 192.075 97.175 192.175C92.925 192.325 88.8 192.375 84.8 192.325C80.85 192.275 76.975 192.175 73.175 192.025ZM171.763 194.425C165.113 194.425 159.288 193.075 154.288 190.375C149.338 187.625 145.213 183.875 141.913 179.125C138.663 174.325 136.238 168.875 134.638 162.775C135.288 162.325 136.213 161.775 137.413 161.125C138.663 160.425 139.988 159.75 141.388 159.1C142.838 158.4 144.238 157.75 145.588 157.15C146.938 156.5 148.113 156 149.113 155.65C150.163 159.9 151.738 163.875 153.838 167.575C155.938 171.225 158.563 174.175 161.713 176.425C164.863 178.675 168.563 179.8 172.813 179.8C177.163 179.8 180.663 178.525 183.313 175.975C185.963 173.375 187.913 169.75 189.163 165.1C190.413 160.4 191.038 154.9 191.038 148.6C191.038 145.5 190.913 141.775 190.663 137.425C190.413 133.025 190.113 128.5 189.763 123.85C189.463 119.2 189.113 114.825 188.713 110.725C188.363 106.575 188.063 103.15 187.813 100.45C187.563 97.75 187.413 96.225 187.363 95.875C188.513 95.625 189.863 95.425 191.413 95.275C192.963 95.125 194.438 95.05 195.838 95.05C197.338 95.05 198.713 95.075 199.963 95.125C201.213 95.175 202.363 95.275 203.413 95.425C203.713 98.725 204.038 102.65 204.388 107.2C204.738 111.75 205.063 116.525 205.363 121.525C205.713 126.475 205.988 131.3 206.188 136C206.388 140.65 206.488 144.75 206.488 148.3C206.488 155.8 205.738 162.425 204.238 168.175C202.788 173.875 200.613 178.675 197.713 182.575C194.813 186.475 191.188 189.425 186.838 191.425C182.488 193.425 177.463 194.425 171.763 194.425Z" fill="#FFD6BA"/>
</svg>
